# xmcd
#
# Track frame offsets: 
#        150
#        15754
#        42515
#        55742
#        78246
#        92783
#        112643
#        135336
#        149345
#        169843
#        179834
#        204396
#        223863
#        251659
#
# Disc length: 3615 seconds
#
# Revision: 0
# Processed by: cddbd v1.5.2PL0 Copyright (c) Steve Scherf et al.
# Submitted via: ExactAudioCopy v0.99pb3
#
DISCID=bb0e1d0e
DTITLE=Varmint - Mr. Man in the Moon
DYEAR=2008
DGENRE=Country
TTITLE0=The Portland Water
TTITLE1=Dues
TTITLE2=It Won't Be Long (And I'll Be Hating You)
TTITLE3=Enlightenment
TTITLE4=Mr. Man in the Moon
TTITLE5=Cluck Old Hen
TTITLE6=Last Date
TTITLE7=Solitary Man
TTITLE8=We Were Talking Abut True Love
TTITLE9=Bar Hoppin'
TTITLE10=Wayfaring Stranger
TTITLE11=Wichita Lineman
TTITLE12=Black Jack Davey
TTITLE13=I'm So Lonesome I Could Cry
EXTD=
EXTT0=
EXTT1=
EXTT2=
EXTT3=
EXTT4=
EXTT5=
EXTT6=
EXTT7=
EXTT8=
EXTT9=
EXTT10=
EXTT11=
EXTT12=
EXTT13=
PLAYORDER=
